<?xml version="1.0" standalone="no"?>
<!DOCTYPE svg PUBLIC "-//W3C//DTD SVG 20010904//EN"
 "http://www.w3.org/TR/2001/REC-SVG-20010904/DTD/svg10.dtd">
<svg version="1.0" xmlns="http://www.w3.org/2000/svg"
 width="700.000000pt" height="700.000000pt" viewBox="0 0 700.000000 700.000000"
 preserveAspectRatio="xMidYMid meet">
<metadata>
Created by potrace 1.14, written by Peter Selinger 2001-2017
</metadata>
<g transform="translate(0.000000,700.000000) scale(0.100000,-0.100000)"
fill="#000000" stroke="none">
<path d="M3032 6564 c-23 -7 -55 -15 -70 -18 -15 -2 -79 -13 -142 -25 -63 -11
-131 -23 -150 -26 -19 -3 -46 -7 -60 -10 -14 -3 -43 -7 -65 -10 -22 -2 -49 -7
-60 -9 -11 -2 -42 -7 -70 -10 -92 -13 -270 -37 -295 -41 -14 -2 -45 -6 -70
-10 -25 -3 -63 -8 -85 -12 -22 -3 -51 -7 -65 -8 -23 -3 -158 -21 -220 -30 -14
-2 -50 -6 -81 -10 -31 -3 -65 -7 -75 -9 -11 -2 -41 -7 -69 -10 -165 -21 -253
-33 -305 -41 -14 -3 -43 -7 -65 -10 -48 -7 -136 -22 -187 -31 l-37 -6 150
-222 c83 -121 214 -313 290 -426 128 -188 138 -205 117 -208 -33 -5 -58 -31
-58 -62 0 -24 3 -26 45 -25 25 1 45 0 45 -3 0 -2 -6 -18 -14 -35 -45 -105 -54
-134 -50 -172 2 -22 6 -62 9 -90 6 -78 25 -256 31 -295 5 -39 24 -66 24 -35 0
57 48 -70 74 -195 13 -68 19 -108 31 -220 2 -19 6 -57 9 -85 3 -27 9 -75 12
-105 3 -30 7 -66 9 -80 14 -96 16 -134 8 -139 -5 -3 -19 -60 -30 -126 l-21
-120 69 -94 70 -94 -36 -34 c-19 -18 -35 -37 -35 -41 0 -5 16 -27 35 -49 34
-40 34 -41 17 -63 -18 -22 -17 -27 25 -194 80 -320 176 -844 207 -1141 3 -27
8 -70 12 -95 7 -50 8 -55 18 -155 4 -38 9 -86 11 -106 2 -20 7 -72 10 -115 3
-43 8 -99 10 -124 2 -25 7 -119 10 -210 13 -316 89 -498 224 -538 73 -22 73
-22 108 90 61 196 63 257 11 274 -46 14 -128 74 -128 92 0 11 19 39 43 63 l43
44 71 0 c40 0 76 -4 81 -10 5 -5 33 -92 63 -193 58 -196 51 -186 126 -196 l31
-4 4 57 c4 81 1 93 -37 121 -59 44 -61 61 -14 143 22 40 42 74 44 76 2 2 19
-14 37 -35 18 -21 42 -46 53 -56 32 -30 118 -68 168 -74 l46 -6 -4 203 c-15
643 -15 660 -4 653 8 -4 9 21 4 87 -4 51 -8 99 -10 108 -2 9 -6 45 -10 81 -4
36 -9 68 -10 71 -2 3 -6 26 -9 52 -3 25 -19 124 -35 219 -17 95 -33 196 -36
223 -4 28 -8 57 -10 65 -2 8 -7 47 -10 85 -4 39 -9 78 -12 88 -3 11 -6 123 -8
250 -2 210 -1 228 12 187 7 -25 15 -54 17 -65 10 -46 69 -212 135 -378 71
-177 134 -367 145 -441 4 -21 9 -42 11 -46 3 -5 7 -51 10 -103 3 -73 -1 -108
-15 -154 l-19 -60 35 -109 c44 -138 191 -647 238 -822 28 -107 34 -147 31
-203 l-3 -69 27 0 c58 0 163 47 199 90 41 47 75 114 98 188 20 66 33 91 63
120 l38 36 -33 43 c-18 24 -31 49 -29 56 2 6 6 30 9 52 5 41 30 185 42 243 3
17 10 32 15 32 5 0 8 3 8 8 -6 37 32 86 60 77 15 -4 17 4 17 63 1 78 13 296
19 332 2 14 6 57 10 95 3 39 7 81 10 95 2 14 7 48 10 75 8 69 34 265 39 291 3
12 7 39 10 60 22 141 74 343 113 444 25 63 73 150 83 150 3 0 5 -35 5 -77 l0
-78 -42 -13 -42 -12 4 -78 c4 -78 13 -183 20 -237 2 -16 6 -59 10 -95 3 -36 8
-72 10 -80 2 -8 7 -40 10 -70 3 -30 8 -66 10 -80 20 -112 28 -650 13 -875 -7
-100 -32 -321 -42 -370 -34 -169 -95 -291 -155 -310 -37 -11 -32 -98 7 -103
15 -2 34 10 64 42 23 25 47 46 52 45 6 0 26 -18 45 -40 l33 -39 -41 0 c-34 0
-41 -3 -41 -20 0 -17 7 -20 48 -20 54 0 68 12 108 89 53 101 88 124 203 128
206 6 299 -55 316 -207 4 -40 14 -65 35 -92 41 -51 43 -47 -34 -101 -18 -13
-17 -17 25 -97 l43 -83 13 38 c12 36 56 98 118 170 l27 30 18 -25 c52 -70 49
-68 50 -35 1 17 3 37 5 45 1 8 6 47 9 85 4 39 9 77 11 85 2 8 6 44 10 80 3 36
7 76 10 90 2 14 6 41 9 60 2 19 9 69 15 110 6 41 13 91 15 110 6 50 36 270 42
303 3 18 -3 38 -14 55 -33 48 -33 60 2 125 53 96 101 277 121 452 3 28 8 61
10 75 3 14 7 57 10 95 3 39 8 86 10 105 3 19 7 71 10 115 3 44 9 103 12 130 3
28 7 399 8 825 0 426 4 795 8 820 8 48 15 99 23 165 3 22 8 47 10 55 3 8 8 26
10 40 3 14 14 45 26 69 12 24 17 46 12 50 -6 3 -27 27 -48 53 -27 34 -36 53
-31 68 6 20 7 20 34 1 l27 -20 42 85 42 85 -31 45 -31 45 61 79 c57 74 72 104
53 112 -4 2 -18 18 -31 36 -21 30 -23 40 -17 115 18 244 58 319 179 341 24 4
101 50 215 127 97 66 178 123 180 127 2 8 -62 27 -123 38 -16 2 -37 7 -45 10
-15 5 -200 42 -250 49 -82 13 -505 100 -629 131 -80 19 -153 37 -161 39 -8 2
-64 19 -123 40 -116 39 -207 88 -207 111 0 10 -13 14 -43 14 -41 0 -44 -2 -72
-50 -17 -27 -37 -50 -45 -50 -78 -3 -149 -23 -186 -53 -36 -28 -49 -29 -110
-12 -53 15 -84 46 -84 84 0 40 -91 81 -180 81 -29 0 -30 -2 -30 -47 l0 -46
-37 47 c-33 42 -40 47 -72 44 -39 -3 -44 -15 -29 -73 4 -16 10 -46 13 -65 5
-30 21 -99 54 -243 12 -51 5 -158 -19 -292 -26 -147 -26 -147 -105 -465 -8
-31 -55 -208 -74 -280 -12 -41 -38 -139 -58 -217 -20 -78 -38 -141 -39 -140
-1 1 -4 45 -7 97 -4 77 -24 186 -62 340 -11 45 -62 205 -109 345 -48 141 -95
289 -141 450 -16 56 -40 168 -50 234 -6 39 -3 49 26 90 18 25 36 48 39 51 8 7
50 67 50 72 0 3 -12 3 -27 1 -42 -5 -76 17 -88 58 l-10 35 -43 -12z m698 -69
c0 -8 -4 -15 -10 -15 -5 0 -7 7 -4 15 4 8 8 15 10 15 2 0 4 -7 4 -15z"/>
<path d="M5494 4854 c-18 -14 -18 -15 4 -4 12 6 22 13 22 15 0 8 -5 6 -26 -11z"/>
</g>
</svg>
