<svg width="200" height="70" viewBox="0 0 200 70" fill="none" xmlns="http://www.w3.org/2000/svg">
<path d="M102.408 28.6309C102.279 28.6309 102.215 28.5605 102.215 28.4199C102.215 28.2676 102.227 28.1797 102.25 28.1562C102.977 28.0156 103.34 26.1582 103.34 22.584C103.34 21.9277 103.27 21.0781 103.129 20.0352C102.988 18.9922 102.918 18.2012 102.918 17.6621L103.305 17.5566V16.7656C102.883 17.2578 102.537 18.3887 102.268 20.1582C102.01 21.9277 101.881 23.3691 101.881 24.4824L101.723 24.4297C101.664 24.4297 101.6 24.5 101.529 24.6406V24.6055C101.4 24.9688 101.277 25.6016 101.16 26.5039L101.494 26.9258C101.26 26.9609 101.084 27.207 100.967 27.6641C100.744 28.5078 100.229 28.9414 99.4199 28.9648L99.4902 28.4902C99.4902 28.3145 99.2559 27.418 98.7871 25.8008C98.3184 24.1719 98.0547 23.3223 97.9961 23.252C98.125 22.8652 98.1895 22.6309 98.1895 22.5488C98.1895 21.7285 97.9316 20.709 97.416 19.4902C96.9004 18.2715 96.625 17.375 96.5898 16.8008V18.418C96.5898 19.1328 96.7129 20.1875 96.959 21.582C97.2051 22.9648 97.3281 23.9316 97.3281 24.4824H97.2402L97.3281 28.5781C96.7773 28.5781 96.2969 28.2969 95.8867 27.7344L95.4648 28.4902L95.5352 28.5781C95.5234 28.625 95.582 28.6953 95.7109 28.7891C95.8516 28.8828 95.9219 28.9531 95.9219 29L95.8867 29.668L95.4121 29.5801L94.8496 27.7344H94.1113L93.6895 28.1914C93.6895 28.3555 93.959 28.5488 94.498 28.7715V28.9648C94.498 29.2695 94.3691 29.7734 94.1113 30.4766C93.584 30.4766 93.2148 30.1953 93.0039 29.6328C92.8398 29.1875 92.7461 28.8359 92.7227 28.5781C92.6875 26.9609 92.5234 25.1328 92.2305 23.0938C91.9375 21.0547 91.5801 19.2852 91.1582 17.7852L91.334 17.5566L90.9648 17.1348L91.334 16.7656L90.6836 15.9043L90.877 14.709H90.9648C90.9414 14.6035 90.8711 14 90.7539 12.8984C90.6484 11.7852 90.4785 11.0352 90.2441 10.6484V10.877C90.1855 10.877 90.1445 10.8008 90.1211 10.6484L89.9102 8.60938L90.2441 7.7832H89.8223C89.7988 7.75977 89.7871 7.71875 89.7871 7.66016C89.7871 7.60156 89.8223 7.53711 89.8926 7.4668C89.9629 7.39648 90.0273 7.36133 90.0859 7.36133C90.1562 7.36133 90.2031 7.37305 90.2266 7.39648L87.4316 3.30078C87.8301 3.20703 88.8965 3.04883 90.6309 2.82617C95.3418 2.2168 97.7969 1.83008 97.9961 1.66602C97.9961 1.98242 98.1367 2.14062 98.418 2.14062C98.5 2.14062 98.5645 2.12891 98.6113 2.10547L97.9961 2.91406C98.043 3.55859 98.3477 4.70117 98.9102 6.3418C99.4844 7.9707 99.7715 9.1543 99.7715 9.89258V10.209C99.8066 10.0566 99.918 9.62891 100.105 8.92578C100.305 8.21094 100.475 7.57227 100.615 7.00977C101.025 5.46289 101.23 4.36133 101.23 3.70508L100.826 1.87695C100.826 1.7832 100.832 1.71289 100.844 1.66602H101.16L101.529 2.10547V1.66602C102.162 1.66602 102.496 1.80664 102.531 2.08789C102.566 2.36914 102.824 2.50977 103.305 2.50977C103.539 2.27539 103.855 2.1582 104.254 2.1582H104.377L104.693 1.66602H105.062C105.086 2.07617 106.791 2.5918 110.178 3.21289C111.467 3.44727 112.234 3.61133 112.48 3.70508L110.688 4.91797C110.219 4.91797 109.926 5.16406 109.809 5.65625C109.715 6.03125 109.668 6.4707 109.668 6.97461L109.984 7.39648L109.369 8.1875L109.668 8.60938L109.264 9.43555L109.018 9.22461L108.947 9.43555L109.387 9.98047C109.059 10.4141 108.895 11.8203 108.895 14.1992L108.947 17.5566C108.947 18.752 108.865 20.0996 108.701 21.5996C108.537 23.0879 108.262 24.0488 107.875 24.4824L108.139 24.9043L107.98 26.0469C107.676 28.2266 107.523 29.4746 107.523 29.791L107.189 29.3516C107.131 29.4336 107.031 29.5566 106.891 29.7207C106.598 30.0605 106.451 30.3242 106.451 30.5117L106.029 29.668C106.182 29.6328 106.322 29.5273 106.451 29.3516L106.135 28.9648C106.135 28.4727 106.018 28.1445 105.783 27.9805C105.561 27.8047 105.209 27.7168 104.729 27.7168L104.342 27.7344C104.037 27.793 103.82 27.9688 103.691 28.2617C103.562 28.543 103.434 28.7129 103.305 28.7715C103.012 28.7715 102.871 28.748 102.883 28.7012C102.895 28.6543 102.9 28.625 102.9 28.6133V28.5781H103.305L102.918 28.1562L102.496 28.5957C102.473 28.6191 102.443 28.6309 102.408 28.6309ZM109.668 9.82227L109.387 9.98047C109.422 9.875 109.516 9.82227 109.668 9.82227ZM101.002 2.10547C101.002 2.14062 101.02 2.1582 101.055 2.1582C101.09 2.1582 101.107 2.13477 101.107 2.08789C101.107 2.0293 101.096 2 101.072 2L101.002 2.10547ZM101.529 24.9043L101.494 24.8164V24.7285C101.494 24.7168 101.5 24.7051 101.512 24.6934C101.523 24.6699 101.529 24.6523 101.529 24.6406V24.9043ZM97.1172 24.4824H96.959C96.959 24.5059 96.9766 24.5176 97.0117 24.5176C97.0586 24.5176 97.0938 24.5059 97.1172 24.4824ZM108.139 25.6426L108.244 25.7129C108.197 25.6895 108.139 25.6777 108.068 25.6777C108.092 25.6543 108.115 25.6426 108.139 25.6426ZM107.91 25.748H107.945L107.998 25.6777L107.91 25.748ZM30.5488 65H25.8906C26.1367 62.0352 26.2598 59.1523 26.2598 56.3516C26.2598 54.2539 25.9902 52.8828 25.4512 52.2383C24.9121 51.5938 24.0508 51.2715 22.8672 51.2715C21.918 51.2715 20.916 51.6172 19.8613 52.3086C19.8145 53.7734 19.791 55.0859 19.791 56.2461C19.791 58.2031 19.8262 61.1211 19.8965 65H15.1855C15.4434 61.7891 15.5723 58.666 15.5723 55.6309C15.5723 54.0605 15.3496 52.9414 14.9043 52.2734C14.4707 51.6055 13.5625 51.2715 12.1797 51.2715C10.9023 51.2715 9.8418 51.6992 8.99805 52.5547C9.05664 57.1953 9.08594 61.3438 9.08594 65H4.35742C4.56836 61.3438 4.67383 58.4609 4.67383 56.3516C4.67383 53.6094 4.38672 50.9668 3.8125 48.4238L8.3125 47.9316L8.61133 49.7949H8.89258C10.416 48.4121 12.1328 47.7207 14.043 47.7207C16.4336 47.7207 18.1152 48.4121 19.0879 49.7949H19.3691C21.1035 48.4121 22.8203 47.7207 24.5195 47.7207C26.5117 47.7207 28.0117 48.1543 29.0195 49.0215C30.0391 49.877 30.5488 51.4355 30.5488 53.6973C30.5488 53.9199 30.5371 54.3477 30.5137 54.9805C30.4902 55.6016 30.4785 56.0234 30.4785 56.2461C30.4785 58.2031 30.502 61.1211 30.5488 65ZM51.3965 56.2637C51.3965 59.2168 50.4883 61.5254 48.6719 63.1895C46.8555 64.8535 44.7168 65.6855 42.2559 65.6855C39.9121 65.6855 37.9023 64.9297 36.2266 63.418C34.5508 61.8945 33.7129 59.7559 33.7129 57.002C33.7129 54.0371 34.627 51.7168 36.4551 50.041C38.2832 48.3652 40.4277 47.5273 42.8887 47.5273C45.2207 47.5273 47.2188 48.2949 48.8828 49.8301C50.5586 51.3535 51.3965 53.498 51.3965 56.2637ZM46.8086 56.791C46.8086 55.0918 46.4102 53.668 45.6133 52.5195C44.8164 51.3594 43.7793 50.7793 42.502 50.7793C41.2598 50.7793 40.2461 51.3184 39.4609 52.3965C38.6875 53.4746 38.3008 54.8223 38.3008 56.4395C38.3008 58.1387 38.6992 59.5684 39.4961 60.7285C40.293 61.877 41.3301 62.4512 42.6074 62.4512C43.8496 62.4512 44.8574 61.9121 45.6309 60.834C46.416 59.7559 46.8086 58.4082 46.8086 56.791ZM69.7656 48.3008C69.7656 48.9805 68.7168 51.7637 66.6191 56.6504C64.5215 61.5371 63.4727 64.3203 63.4727 65H58.6738C58.6738 64.25 57.7422 61.4023 55.8789 56.457C54.0156 51.5 53.084 48.7812 53.084 48.3008H58.2168C58.2168 48.8281 58.791 50.8672 59.9395 54.418C61.0996 57.957 61.6797 60.0371 61.6797 60.6582H61.9082C61.9082 60.0957 62.459 58.127 63.5605 54.752C64.6621 51.377 65.2129 49.2266 65.2129 48.3008H69.7656ZM77.166 65H72.4375C72.6016 62.5742 72.6836 59.791 72.6836 56.6504C72.6836 53.5332 72.4844 50.8027 72.0859 48.459L77.1484 47.9492C76.9961 50.2227 76.9199 53.123 76.9199 56.6504C76.9199 59.6621 77.002 62.4453 77.166 65ZM77.9746 42.9922C77.9746 43.7891 77.6992 44.4863 77.1484 45.084C76.6094 45.6816 75.8535 45.9805 74.8809 45.9805C74.0605 45.9805 73.416 45.7227 72.9473 45.207C72.4902 44.6914 72.2617 44.0703 72.2617 43.3438C72.2617 42.5469 72.5312 41.8555 73.0703 41.2695C73.6211 40.6836 74.3887 40.3906 75.373 40.3906C76.2051 40.3906 76.8438 40.6484 77.2891 41.1641C77.7461 41.668 77.9746 42.2773 77.9746 42.9922ZM96.4141 54.8574C96.4141 55.4551 96.3789 56.2344 96.3086 57.1953L84.9883 57.3887C85.1523 58.7129 85.7207 59.8145 86.6934 60.6934C87.666 61.5723 88.9434 62.0117 90.5254 62.0117C92.2832 62.0117 94.1523 61.748 96.1328 61.2207L95.7812 64.6309C94.1641 65.2168 92.1602 65.5098 89.7695 65.5098C86.7461 65.5098 84.4258 64.6602 82.8086 62.9609C81.2031 61.2617 80.4004 59.2168 80.4004 56.8262C80.4004 54.3301 81.1621 52.168 82.6855 50.3398C84.2207 48.5 86.3477 47.5801 89.0664 47.5801C91.5508 47.5801 93.3965 48.2539 94.6035 49.6016C95.8105 50.9492 96.4141 52.7012 96.4141 54.8574ZM92.3008 54.6992C92.3008 52.0039 91.1523 50.6562 88.8555 50.6562C86.6641 50.6562 85.3633 52.0508 84.9531 54.8398L92.3008 54.6992ZM115.697 64.9824L111.531 65.123C111.449 64.7129 111.408 64.2852 111.408 63.8398H111.145C109.855 64.9531 108.209 65.5098 106.205 65.5098C103.955 65.5098 102.168 64.6953 100.844 63.0664C99.5195 61.4375 98.8574 59.5039 98.8574 57.2656C98.8574 54.6992 99.5781 52.4668 101.02 50.5684C102.461 48.6582 104.465 47.7031 107.031 47.7031C108.695 47.7031 109.943 48.0137 110.775 48.6348H111.021C111.021 45.8691 110.887 43.0859 110.617 40.2852L115.592 40.1445C115.404 42.875 115.311 46.8008 115.311 51.9219C115.311 57.1133 115.439 61.4668 115.697 64.9824ZM111.285 60.9922C111.285 57.2539 111.197 54.1602 111.021 51.7109C110.213 51.1484 109.246 50.8672 108.121 50.8672C106.574 50.8672 105.426 51.4414 104.676 52.5898C103.926 53.7383 103.551 55.1445 103.551 56.8086C103.551 58.2852 103.914 59.5625 104.641 60.6406C105.367 61.707 106.375 62.2402 107.664 62.2402C109.387 62.2402 110.594 61.8242 111.285 60.9922ZM131.025 48.3008L130.006 52.4141C129.139 52.0625 128.26 51.8867 127.369 51.8867C125.646 51.8867 124.51 52.6602 123.959 54.207C123.959 58.8828 123.994 62.4805 124.064 65H119.389C119.588 61.4727 119.688 58.5898 119.688 56.3516C119.688 53.5625 119.395 50.9199 118.809 48.4238L123.291 47.9316C123.49 49.2207 123.59 49.9766 123.59 50.1992H123.871C124.949 48.5469 126.385 47.7207 128.178 47.7207C129.021 47.7207 129.971 47.9141 131.025 48.3008ZM148.586 54.8574C148.586 55.4551 148.551 56.2344 148.48 57.1953L137.16 57.3887C137.324 58.7129 137.893 59.8145 138.865 60.6934C139.838 61.5723 141.115 62.0117 142.697 62.0117C144.455 62.0117 146.324 61.748 148.305 61.2207L147.953 64.6309C146.336 65.2168 144.332 65.5098 141.941 65.5098C138.918 65.5098 136.598 64.6602 134.98 62.9609C133.375 61.2617 132.572 59.2168 132.572 56.8262C132.572 54.3301 133.334 52.168 134.857 50.3398C136.393 48.5 138.52 47.5801 141.238 47.5801C143.723 47.5801 145.568 48.2539 146.775 49.6016C147.982 50.9492 148.586 52.7012 148.586 54.8574ZM144.473 54.6992C144.473 52.0039 143.324 50.6562 141.027 50.6562C138.836 50.6562 137.535 52.0508 137.125 54.8398L144.473 54.6992ZM166.076 64.9824L161.928 65.123C161.74 64.6309 161.646 64.1855 161.646 63.7871H161.418C160.129 64.8887 158.389 65.4395 156.197 65.4395C154.732 65.4395 153.514 65.0352 152.541 64.2266C151.58 63.4062 151.1 62.3223 151.1 60.9746C151.1 59.1934 151.85 57.7344 153.35 56.5977C154.861 55.4609 157.504 54.8574 161.277 54.7871C161.301 54.5762 161.312 54.377 161.312 54.1895C161.312 52.9238 161.008 52.0918 160.398 51.6934C159.789 51.2832 158.67 51.0781 157.041 51.0781C155.271 51.0781 153.543 51.3125 151.855 51.7812L152.242 48.5469C153.836 47.9961 156.086 47.7207 158.992 47.7207C161.113 47.7207 162.748 48.166 163.896 49.0566C165.057 49.9473 165.637 51.5059 165.637 53.7324C165.637 54.2246 165.613 55.1211 165.566 56.4219C165.531 57.7227 165.514 58.5898 165.514 59.0234C165.514 61.4492 165.701 63.4355 166.076 64.9824ZM161.383 61.3262C161.312 59.7441 161.277 58.3789 161.277 57.2305C157.281 57.2305 155.283 58.2441 155.283 60.2715C155.283 61.666 156.162 62.3633 157.92 62.3633C159.303 62.3633 160.457 62.0176 161.383 61.3262ZM195.502 65H190.844C191.09 62.0352 191.213 59.1523 191.213 56.3516C191.213 54.2539 190.943 52.8828 190.404 52.2383C189.865 51.5938 189.004 51.2715 187.82 51.2715C186.871 51.2715 185.869 51.6172 184.814 52.3086C184.768 53.7734 184.744 55.0859 184.744 56.2461C184.744 58.2031 184.779 61.1211 184.85 65H180.139C180.396 61.7891 180.525 58.666 180.525 55.6309C180.525 54.0605 180.303 52.9414 179.857 52.2734C179.424 51.6055 178.516 51.2715 177.133 51.2715C175.855 51.2715 174.795 51.6992 173.951 52.5547C174.01 57.1953 174.039 61.3438 174.039 65H169.311C169.521 61.3438 169.627 58.4609 169.627 56.3516C169.627 53.6094 169.34 50.9668 168.766 48.4238L173.266 47.9316L173.564 49.7949H173.846C175.369 48.4121 177.086 47.7207 178.996 47.7207C181.387 47.7207 183.068 48.4121 184.041 49.7949H184.322C186.057 48.4121 187.773 47.7207 189.473 47.7207C191.465 47.7207 192.965 48.1543 193.973 49.0215C194.992 49.877 195.502 51.4355 195.502 53.6973C195.502 53.9199 195.49 54.3477 195.467 54.9805C195.443 55.6016 195.432 56.0234 195.432 56.2461C195.432 58.2031 195.455 61.1211 195.502 65Z" fill="#FFFF00"/>
</svg>
